#define jeep_width 96
#define jeep_height 64
static unsigned char jeep_bits[] = {
   0x00, 0x00, 0x00, 0x00, 0x00, 0x00, 0x00, 0x00, 0x00, 0x00, 0x00, 0x00,
   0x00, 0x00, 0x00, 0x00, 0x03, 0x00, 0x00, 0x00, 0x00, 0x00, 0x00, 0x00,
   0x00, 0x00, 0x00, 0x80, 0x87, 0x83, 0x03, 0x03, 0x00, 0x00, 0x00, 0x00,
   0x00, 0x00, 0x00, 0x80, 0x87, 0x87, 0x87, 0x07, 0x00, 0x00, 0x00, 0x00,
   0x00, 0x00, 0x00, 0x80, 0x83, 0x83, 0x87, 0x07, 0x00, 0x00, 0x00, 0x00,
   0x00, 0x00, 0x00, 0xe0, 0x87, 0x83, 0x83, 0x03, 0x00, 0x00, 0x00, 0x00,
   0x00, 0x00, 0x00, 0x08, 0x00, 0x30, 0xfe, 0x3f, 0x00, 0x00, 0x00, 0x00,
   0x00, 0x00, 0x00, 0x08, 0x00, 0x00, 0x00, 0x40, 0x00, 0x00, 0x00, 0x00,
   0x00, 0x00, 0x00, 0xf8, 0xff, 0xff, 0xff, 0x5f, 0x00, 0x00, 0x00, 0x00,
   0x00, 0x00, 0x00, 0x6e, 0xf8, 0x01, 0x80, 0x30, 0x00, 0x00, 0x00, 0x00,
   0x00, 0x00, 0x00, 0x0f, 0xc1, 0x03, 0x00, 0xa0, 0x00, 0x00, 0x00, 0x00,
   0x00, 0x00, 0x00, 0x0f, 0x00, 0x1e, 0x00, 0x80, 0x00, 0x00, 0x00, 0x00,
   0x00, 0x00, 0x00, 0x0f, 0x00, 0xf8, 0x00, 0x80, 0x00, 0x00, 0x00, 0x00,
   0x00, 0x00, 0x00, 0x0f, 0x00, 0xc0, 0x07, 0x40, 0x00, 0x00, 0x00, 0x00,
   0x00, 0x00, 0x80, 0x0f, 0x00, 0x00, 0x1e, 0x40, 0x01, 0x00, 0x00, 0x00,
   0x00, 0x00, 0x00, 0x0f, 0x10, 0x00, 0xf0, 0xc0, 0x00, 0x00, 0x00, 0x00,
   0x00, 0x00, 0xe0, 0x0e, 0x40, 0x00, 0xc0, 0x87, 0x01, 0x00, 0x00, 0x00,
   0x00, 0x00, 0xe0, 0x0e, 0x00, 0x03, 0x00, 0xfe, 0x07, 0x00, 0x00, 0x00,
   0x00, 0x00, 0xe0, 0x0e, 0x00, 0x0e, 0x00, 0xf0, 0x06, 0x00, 0x00, 0x00,
   0x00, 0x00, 0x60, 0xfe, 0xff, 0xff, 0xff, 0xff, 0x04, 0x00, 0x00, 0x00,
   0x00, 0x00, 0xc0, 0xff, 0xff, 0xff, 0xff, 0xff, 0x03, 0x00, 0x00, 0x00,
   0x00, 0x00, 0xc0, 0xff, 0x03, 0xc0, 0xff, 0xff, 0x03, 0x00, 0x00, 0x00,
   0x00, 0x00, 0xc0, 0x3f, 0x00, 0x00, 0x00, 0x00, 0x01, 0x00, 0x00, 0x00,
   0x00, 0x00, 0xe0, 0x0f, 0x00, 0x00, 0x00, 0x00, 0x00, 0x00, 0x00, 0x00,
   0x00, 0x00, 0xe0, 0x05, 0x00, 0x00, 0x00, 0x00, 0x00, 0x00, 0x00, 0x00,
   0x00, 0x00, 0xe0, 0x05, 0x00, 0xfc, 0xff, 0x3f, 0x00, 0x00, 0x00, 0x00,
   0x00, 0x00, 0xe0, 0x04, 0x80, 0xb9, 0x52, 0xed, 0x06, 0x00, 0x00, 0x00,
   0x00, 0x00, 0xc0, 0x04, 0x40, 0x00, 0x00, 0x20, 0x08, 0x00, 0x00, 0x00,
   0x00, 0x00, 0x80, 0x04, 0x70, 0x00, 0x00, 0x00, 0x18, 0x00, 0x00, 0x00,
   0x00, 0x00, 0x80, 0x00, 0x60, 0x00, 0x00, 0x00, 0xf0, 0x03, 0x00, 0x00,
   0x00, 0x00, 0x88, 0xc0, 0x7e, 0x00, 0x00, 0x00, 0xf8, 0x0f, 0x00, 0x00,
   0x00, 0x00, 0x88, 0xc8, 0x7f, 0x00, 0x00, 0x20, 0xf8, 0x0f, 0x00, 0x00,
   0x00, 0x00, 0x88, 0xd9, 0xff, 0x19, 0x00, 0x60, 0xfc, 0x0f, 0x00, 0x00,
   0x00, 0x00, 0x88, 0xd9, 0xff, 0x1f, 0x00, 0xe0, 0xff, 0x0f, 0x00, 0x00,
   0x00, 0x00, 0x9a, 0x19, 0xfc, 0x1f, 0x00, 0xe0, 0xff, 0x00, 0x00, 0x00,
   0x00, 0x00, 0x90, 0xff, 0xff, 0x1f, 0x00, 0xe0, 0x7f, 0x00, 0x00, 0x00,
   0x00, 0x00, 0x91, 0xff, 0xff, 0xff, 0xff, 0xff, 0xff, 0x0f, 0x00, 0x00,
   0x00, 0x00, 0x90, 0xff, 0xff, 0xff, 0xff, 0xff, 0xff, 0x1f, 0x00, 0x00,
   0x00, 0x00, 0xb1, 0xff, 0x07, 0x00, 0x00, 0x00, 0x00, 0x3e, 0x00, 0x00,
   0x00, 0x00, 0xf1, 0x0e, 0xe7, 0xfe, 0xff, 0xff, 0xff, 0x7f, 0x00, 0x00,
   0x00, 0x00, 0x73, 0x7c, 0xf4, 0xff, 0xff, 0xff, 0xff, 0x7f, 0x00, 0x00,
   0x00, 0x00, 0x7b, 0xf9, 0xf5, 0xff, 0xff, 0xff, 0xff, 0xff, 0x00, 0x00,
   0x00, 0x80, 0x7b, 0xfb, 0xf3, 0xff, 0xff, 0xff, 0xff, 0xff, 0x00, 0x00,
   0x00, 0x80, 0x3b, 0xfb, 0xfb, 0x0f, 0xe0, 0xff, 0xff, 0xff, 0x00, 0x00,
   0x00, 0x80, 0xb9, 0xfb, 0xff, 0x1f, 0x00, 0xf8, 0xff, 0xff, 0x00, 0x00,
   0x00, 0x80, 0xbd, 0xff, 0xff, 0x7f, 0x00, 0x00, 0xff, 0x7f, 0x00, 0x00,
   0x00, 0x80, 0xbd, 0xff, 0xff, 0x7f, 0x7c, 0x00, 0xe0, 0x93, 0x00, 0x00,
   0x00, 0x80, 0xbd, 0xff, 0xfb, 0xff, 0x07, 0x30, 0xc0, 0x91, 0x00, 0x00,
   0x00, 0x80, 0xbd, 0xff, 0x78, 0x00, 0x80, 0xff, 0xff, 0x99, 0x00, 0x00,
   0x00, 0x80, 0xfd, 0x7f, 0x09, 0xe0, 0xff, 0x7f, 0xff, 0x91, 0x00, 0x00,
   0x00, 0x80, 0xff, 0x3f, 0x3c, 0xfe, 0xf3, 0x7f, 0xfe, 0x11, 0x00, 0x00,
   0x00, 0x80, 0xff, 0x2f, 0x08, 0xf8, 0xf1, 0x7f, 0xfe, 0x01, 0x00, 0x00,
   0x00, 0x00, 0xff, 0x2f, 0x08, 0xf0, 0xf0, 0x3f, 0xfe, 0x01, 0x01, 0x00,
   0x00, 0x00, 0xff, 0x0f, 0x08, 0x00, 0xe0, 0x3f, 0xfe, 0x00, 0x00, 0x00,
   0x00, 0x00, 0xc0, 0x0f, 0x08, 0x00, 0xc0, 0x1f, 0xfc, 0x00, 0x00, 0x00,
   0x00, 0x00, 0xc0, 0x0f, 0x08, 0x00, 0x00, 0x1e, 0xfc, 0x00, 0x00, 0x00,
   0x00, 0x00, 0xc0, 0x0f, 0x00, 0x00, 0x00, 0x00, 0x7c, 0x00, 0x00, 0x00,
   0x00, 0x00, 0xc0, 0x0f, 0x00, 0x00, 0x00, 0x00, 0x78, 0x00, 0x00, 0x00,
   0x00, 0x00, 0x80, 0x0f, 0x00, 0x00, 0x00, 0x00, 0x38, 0x00, 0x00, 0x00,
   0x00, 0x00, 0x80, 0x07, 0x04, 0x00, 0x00, 0x00, 0xb0, 0x1f, 0x00, 0x00,
   0x00, 0x00, 0x80, 0x07, 0x00, 0x00, 0x00, 0x00, 0x00, 0x00, 0x00, 0x00,
   0x00, 0x00, 0x00, 0x03, 0x02, 0x00, 0x00, 0x00, 0x00, 0x00, 0x00, 0x00,
   0x00, 0x00, 0x00, 0x00, 0x00, 0x00, 0x00, 0x00, 0x00, 0x00, 0x00, 0x00,
   0x00, 0x00, 0x00, 0x00, 0x00, 0x00, 0x00, 0x00, 0x00, 0x00, 0x00, 0x00 };
